<?xml version="1.0" encoding="UTF-8" standalone="no"?>
<svg width="101px" height="101px" viewBox="0 0 101 101" version="1.1" xmlns="http://www.w3.org/2000/svg" xmlns:xlink="http://www.w3.org/1999/xlink" xmlns:sketch="http://www.bohemiancoding.com/sketch/ns">
    <!-- Generator: Sketch 3.3.2 (12043) - http://www.bohemiancoding.com/sketch -->
    <title>pencil</title>
    <desc>Created with Sketch.</desc>
    <defs></defs>
    <g id="Page-1" stroke="none" stroke-width="1" fill="none" fill-rule="evenodd" sketch:type="MSPage">
        <g id="pencil" sketch:type="MSLayerGroup" transform="translate(0.070312, 0.804688)">
            <path d="M50.147,0 C22.533,0 0.147,22.386 0.147,50 C0.147,77.613 22.533,100 50.147,100 C77.761,100 100.147,77.613 100.147,50 C100.147,22.385 77.762,0 50.147,0 L50.147,0 Z" id="Shape" fill="#3DB39E" sketch:type="MSShapeGroup"></path>
            <path d="M93.141,24.477 C88.994,17.505 83.203,11.627 76.296,7.381 C62.364,21.313 38.501,45.176 38.045,45.631 C36.688,46.988 32.344,66.926 33.282,67.864 C34.243,68.826 53.697,63.921 55.015,62.601 L93.141,24.477 L93.141,24.477 Z" id="Shape" fill="#000000" sketch:type="MSShapeGroup"></path>
            <path d="M46.521,54.107 C45.525,53.111 45.397,48.74 44.393,47.737 C43.39,46.732 38.049,45.632 38.045,45.631 C36.742,46.934 32.689,65.355 33.197,67.653 L33.492,67.949 C35.774,68.437 53.749,63.868 55.015,62.601 C55.015,62.601 53.869,57.212 52.888,56.232 C51.907,55.25 47.519,55.104 46.521,54.107 L46.521,54.107 Z" id="Shape" fill="#FFCABA" sketch:type="MSShapeGroup"></path>
            <path d="M33.171,67.506 L33.197,67.652 L33.493,67.949 C35.779,68.436 53.749,63.868 55.015,62.601 C55.015,62.601 53.913,57.257 52.91,56.252 C36.191,65.763 33.58,67.268 33.171,67.506 L33.171,67.506 Z" id="Shape" fill="#E5B5A7" sketch:type="MSShapeGroup"></path>
            <path d="M33.164,67.435 C33.469,66.912 35.145,63.997 44.393,47.738 C43.389,46.733 38.044,45.632 38.044,45.632 C36.777,46.898 32.907,64.363 33.164,67.435 L33.164,67.435 Z" id="Shape" fill="#FFDCD2" sketch:type="MSShapeGroup"></path>
            <path d="M36.631,64.017 C35.944,63.329 34.765,62.815 33.67,62.732 C33.204,65.504 32.995,67.578 33.282,67.865 C33.561,68.145 35.411,67.927 37.919,67.446 C37.98,66.233 37.418,64.804 36.631,64.017 L36.631,64.017 Z" id="Shape" fill="#000000" sketch:type="MSShapeGroup"></path>
        </g>
    </g>
</svg>